<svg xmlns="http://www.w3.org/2000/svg" xmlns:xlink="http://www.w3.org/1999/xlink" width="500" zoomAndPan="magnify" viewBox="0 0 375 374.999991" height="500" preserveAspectRatio="xMidYMid meet" version="1.0"><defs><g/><clipPath id="c45e748a64"><path d="M 99.851562 78 L 275.351562 78 L 275.351562 170 L 99.851562 170 Z M 99.851562 78 " clip-rule="nonzero"/></clipPath><clipPath id="4d8dc78f64"><path d="M 101.664062 175.734375 L 273.21875 175.734375 L 273.21875 236.246094 L 101.664062 236.246094 Z M 101.664062 175.734375 " clip-rule="nonzero"/></clipPath><clipPath id="6fb47ee2e2"><path d="M 269.167969 187.585938 L 228.160156 186.605469 L 187.152344 185.660156 L 182.902344 185.5625 L 188.238281 185.226562 L 229.742188 182.558594 L 271.246094 179.851562 L 271.289062 179.847656 C 272.371094 179.773438 273.21875 178.871094 273.207031 177.777344 C 273.195312 176.640625 272.265625 175.730469 271.128906 175.742188 L 229.371094 176.160156 L 187.613281 176.628906 L 145.851562 177.164062 C 131.933594 177.363281 118.015625 177.558594 104.09375 177.796875 C 118.015625 178.039062 131.933594 178.234375 145.851562 178.429688 L 187.613281 178.964844 L 200.609375 179.113281 L 187.929688 179.726562 L 146.390625 181.777344 L 104.855469 183.863281 C 103.164062 183.949219 101.777344 185.324219 101.722656 187.046875 C 101.664062 188.867188 103.09375 190.390625 104.914062 190.449219 L 104.949219 190.449219 L 145.949219 191.769531 L 175.738281 192.707031 L 109.699219 196.410156 C 107.550781 196.535156 105.796875 198.28125 105.71875 200.472656 C 105.632812 202.800781 107.453125 204.753906 109.785156 204.839844 L 182.769531 207.453125 L 120.949219 211.761719 L 120.898438 211.765625 C 119.070312 211.898438 117.605469 213.398438 117.546875 215.269531 C 117.488281 217.269531 119.058594 218.9375 121.058594 219 L 184.921875 220.941406 L 198.390625 221.335938 L 193.964844 221.714844 L 139.265625 226.464844 L 139.226562 226.46875 C 138.242188 226.550781 137.457031 227.363281 137.425781 228.375 C 137.394531 229.464844 138.25 230.371094 139.339844 230.402344 L 183.722656 231.734375 L 209.066406 232.457031 L 193.902344 233.601562 L 176.8125 234.914062 L 159.722656 236.246094 L 176.847656 235.464844 L 193.96875 234.65625 L 228.207031 233 C 228.707031 232.972656 229.121094 232.574219 229.148438 232.0625 C 229.175781 231.515625 228.757812 231.050781 228.210938 231.023438 L 228.1875 231.019531 L 183.84375 228.707031 L 172.53125 228.132812 L 194.347656 226.636719 L 249.113281 222.800781 C 250.566406 222.699219 251.738281 221.523438 251.800781 220.039062 C 251.867188 218.445312 250.628906 217.097656 249.035156 217.03125 L 248.992188 217.027344 L 191.824219 214.632812 L 262.195312 210.1875 C 264.257812 210.050781 265.941406 208.375 266.019531 206.265625 C 266.105469 204.011719 264.347656 202.117188 262.089844 202.03125 L 262.074219 202.03125 L 199.355469 199.671875 L 229.511719 197.902344 L 269.289062 195.542969 L 269.324219 195.542969 C 271.367188 195.414062 273.007812 193.742188 273.054688 191.660156 C 273.109375 189.460938 271.367188 187.636719 269.167969 187.585938 Z M 269.167969 187.585938 " clip-rule="nonzero"/></clipPath><clipPath id="485de90f40"><path d="M 269.167969 187.585938 L 228.160156 186.605469 L 187.152344 185.660156 L 182.902344 185.5625 L 188.238281 185.226562 L 229.742188 182.558594 L 271.246094 179.851562 L 271.289062 179.847656 C 272.371094 179.773438 273.21875 178.871094 273.207031 177.777344 C 273.195312 176.640625 272.265625 175.730469 271.128906 175.742188 L 229.371094 176.160156 L 187.613281 176.628906 L 145.851562 177.164062 C 131.933594 177.363281 118.015625 177.558594 104.09375 177.796875 C 118.015625 178.039062 131.933594 178.234375 145.851562 178.429688 L 187.613281 178.964844 L 200.609375 179.113281 L 187.929688 179.726562 L 146.390625 181.777344 L 104.855469 183.863281 C 103.164062 183.949219 101.777344 185.324219 101.722656 187.046875 C 101.664062 188.867188 103.09375 190.390625 104.914062 190.449219 L 104.949219 190.449219 L 145.949219 191.769531 L 175.738281 192.707031 L 109.699219 196.410156 C 107.550781 196.535156 105.796875 198.28125 105.71875 200.472656 C 105.632812 202.800781 107.453125 204.753906 109.785156 204.839844 L 182.769531 207.453125 L 120.949219 211.761719 L 120.898438 211.765625 C 119.070312 211.898438 117.605469 213.398438 117.546875 215.269531 C 117.488281 217.269531 119.058594 218.9375 121.058594 219 L 184.921875 220.941406 L 198.390625 221.335938 L 193.964844 221.714844 L 139.265625 226.464844 L 139.226562 226.46875 C 138.242188 226.550781 137.457031 227.363281 137.425781 228.375 C 137.394531 229.464844 138.25 230.371094 139.339844 230.402344 L 183.722656 231.734375 L 209.066406 232.457031 L 193.902344 233.601562 L 176.8125 234.914062 L 159.722656 236.246094 L 176.847656 235.464844 L 193.96875 234.65625 L 228.207031 233 C 228.707031 232.972656 229.121094 232.574219 229.148438 232.0625 C 229.175781 231.515625 228.757812 231.050781 228.210938 231.023438 L 228.1875 231.019531 L 183.84375 228.707031 L 172.53125 228.132812 L 194.347656 226.636719 L 249.113281 222.800781 C 250.566406 222.699219 251.738281 221.523438 251.800781 220.039062 C 251.867188 218.445312 250.628906 217.097656 249.035156 217.03125 L 248.992188 217.027344 L 191.824219 214.632812 L 262.195312 210.1875 C 264.257812 210.050781 265.941406 208.375 266.019531 206.265625 C 266.105469 204.011719 264.347656 202.117188 262.089844 202.03125 L 262.074219 202.03125 L 199.355469 199.671875 L 229.511719 197.902344 L 269.289062 195.542969 L 269.324219 195.542969 C 271.367188 195.414062 273.007812 193.742188 273.054688 191.660156 C 273.109375 189.460938 271.367188 187.636719 269.167969 187.585938 " clip-rule="nonzero"/></clipPath><linearGradient x1="0.0167267" gradientTransform="matrix(0, 110.416333, -110.442769, 0, 187.46388, 173.886026)" y1="0" x2="0.564781" gradientUnits="userSpaceOnUse" y2="0" id="c82eb23987"><stop stop-opacity="1" stop-color="rgb(0%, 99.198914%, 99.598694%)" offset="0"/><stop stop-opacity="1" stop-color="rgb(0%, 99.015808%, 99.598694%)" offset="0.0078125"/><stop stop-opacity="1" stop-color="rgb(0%, 98.815918%, 99.420166%)" offset="0.015625"/><stop stop-opacity="1" stop-color="rgb(0%, 98.600769%, 99.220276%)" offset="0.0195312"/><stop stop-opacity="1" stop-color="rgb(0%, 98.402405%, 99.198914%)" offset="0.0234375"/><stop stop-opacity="1" stop-color="rgb(0%, 98.207092%, 99.198914%)" offset="0.03125"/><stop stop-opacity="1" stop-color="rgb(0%, 97.821045%, 99.014282%)" offset="0.046875"/><stop stop-opacity="1" stop-color="rgb(0%, 97.4823%, 98.814392%)" offset="0.0625"/><stop stop-opacity="1" stop-color="rgb(0%, 97.122192%, 98.603821%)" offset="0.0664062"/><stop stop-opacity="1" stop-color="rgb(0%, 96.910095%, 98.410034%)" offset="0.0703125"/><stop stop-opacity="1" stop-color="rgb(0%, 96.903992%, 98.403931%)" offset="0.078125"/><stop stop-opacity="1" stop-color="rgb(0%, 96.713257%, 98.399353%)" offset="0.0859375"/><stop stop-opacity="1" stop-color="rgb(0%, 96.513367%, 98.399353%)" offset="0.09375"/><stop stop-opacity="1" stop-color="rgb(0%, 96.322632%, 98.222351%)" offset="0.101562"/><stop stop-opacity="1" stop-color="rgb(0%, 95.925903%, 98.022461%)" offset="0.105469"/><stop stop-opacity="1" stop-color="rgb(0%, 95.706177%, 97.999573%)" offset="0.109375"/><stop stop-opacity="1" stop-color="rgb(0%, 95.513916%, 97.81189%)" offset="0.125"/><stop stop-opacity="1" stop-color="rgb(0%, 95.132446%, 97.612%)" offset="0.140625"/><stop stop-opacity="1" stop-color="rgb(0%, 94.721985%, 97.599792%)" offset="0.144531"/><stop stop-opacity="1" stop-color="rgb(0%, 94.502258%, 97.599792%)" offset="0.148438"/><stop stop-opacity="1" stop-color="rgb(0%, 94.500732%, 97.453308%)" offset="0.15625"/><stop stop-opacity="1" stop-color="rgb(0%, 94.309998%, 97.303772%)" offset="0.164062"/><stop stop-opacity="1" stop-color="rgb(0%, 94.110107%, 97.299194%)" offset="0.171875"/><stop stop-opacity="1" stop-color="rgb(0%, 93.919373%, 97.119141%)" offset="0.179687"/><stop stop-opacity="1" stop-color="rgb(0%, 93.544006%, 96.91925%)" offset="0.1875"/><stop stop-opacity="1" stop-color="rgb(0%, 93.32428%, 96.899414%)" offset="0.195312"/><stop stop-opacity="1" stop-color="rgb(0%, 93.107605%, 96.899414%)" offset="0.203125"/><stop stop-opacity="1" stop-color="rgb(0%, 92.907715%, 96.711731%)" offset="0.210938"/><stop stop-opacity="1" stop-color="rgb(0%, 92.71698%, 96.511841%)" offset="0.21875"/><stop stop-opacity="1" stop-color="rgb(0%, 92.384338%, 96.499634%)" offset="0.226562"/><stop stop-opacity="1" stop-color="rgb(0%, 92.216492%, 96.30127%)" offset="0.230469"/><stop stop-opacity="1" stop-color="rgb(0%, 92.199707%, 96.104431%)" offset="0.234375"/><stop stop-opacity="1" stop-color="rgb(0%, 92.00592%, 96.101379%)" offset="0.242187"/><stop stop-opacity="1" stop-color="rgb(0%, 91.618347%, 96.099854%)" offset="0.25"/><stop stop-opacity="1" stop-color="rgb(0%, 91.2323%, 95.9198%)" offset="0.265625"/><stop stop-opacity="1" stop-color="rgb(0%, 91.020203%, 95.71991%)" offset="0.273437"/><stop stop-opacity="1" stop-color="rgb(0%, 90.803528%, 95.698547%)" offset="0.28125"/><stop stop-opacity="1" stop-color="rgb(0%, 90.414429%, 95.509338%)" offset="0.289062"/><stop stop-opacity="1" stop-color="rgb(0%, 90.208435%, 95.309448%)" offset="0.296875"/><stop stop-opacity="1" stop-color="rgb(0%, 90.0177%, 95.298767%)" offset="0.304688"/><stop stop-opacity="1" stop-color="rgb(0%, 89.81781%, 95.298767%)" offset="0.3125"/><stop stop-opacity="1" stop-color="rgb(0%, 89.602661%, 95.103455%)" offset="0.316406"/><stop stop-opacity="1" stop-color="rgb(0%, 89.407349%, 94.908142%)" offset="0.320312"/><stop stop-opacity="1" stop-color="rgb(0%, 89.212036%, 94.903564%)" offset="0.328125"/><stop stop-opacity="1" stop-color="rgb(0%, 88.825989%, 94.715881%)" offset="0.34375"/><stop stop-opacity="1" stop-color="rgb(0%, 88.616943%, 94.515991%)" offset="0.351562"/><stop stop-opacity="1" stop-color="rgb(0%, 88.401794%, 94.499207%)" offset="0.355469"/><stop stop-opacity="1" stop-color="rgb(0%, 88.204956%, 94.499207%)" offset="0.359375"/><stop stop-opacity="1" stop-color="rgb(0%, 88.008118%, 94.499207%)" offset="0.363281"/><stop stop-opacity="1" stop-color="rgb(0%, 87.812805%, 94.499207%)" offset="0.367188"/><stop stop-opacity="1" stop-color="rgb(0%, 87.805176%, 94.309998%)" offset="0.375"/><stop stop-opacity="1" stop-color="rgb(0%, 87.649536%, 94.110107%)" offset="0.390625"/><stop stop-opacity="1" stop-color="rgb(0%, 87.30011%, 93.899536%)" offset="0.394531"/><stop stop-opacity="1" stop-color="rgb(0%, 87.10022%, 93.701172%)" offset="0.398438"/><stop stop-opacity="1" stop-color="rgb(0%, 86.904907%, 93.699646%)" offset="0.40625"/><stop stop-opacity="1" stop-color="rgb(0%, 86.51886%, 93.699646%)" offset="0.421875"/><stop stop-opacity="1" stop-color="rgb(0%, 86.132812%, 93.518066%)" offset="0.429688"/><stop stop-opacity="1" stop-color="rgb(0%, 85.917664%, 93.318176%)" offset="0.4375"/><stop stop-opacity="1" stop-color="rgb(0%, 85.702515%, 93.299866%)" offset="0.441406"/><stop stop-opacity="1" stop-color="rgb(0%, 85.507202%, 93.299866%)" offset="0.445312"/><stop stop-opacity="1" stop-color="rgb(0%, 85.502625%, 93.107605%)" offset="0.453125"/><stop stop-opacity="1" stop-color="rgb(0%, 85.31189%, 92.906189%)" offset="0.460938"/><stop stop-opacity="1" stop-color="rgb(0%, 84.93042%, 92.89856%)" offset="0.46875"/><stop stop-opacity="1" stop-color="rgb(0%, 84.716797%, 92.89856%)" offset="0.476562"/><stop stop-opacity="1" stop-color="rgb(0%, 84.500122%, 92.700195%)" offset="0.480469"/><stop stop-opacity="1" stop-color="rgb(0%, 84.303284%, 92.503357%)" offset="0.484375"/><stop stop-opacity="1" stop-color="rgb(0%, 84.112549%, 92.500305%)" offset="0.5"/><stop stop-opacity="1" stop-color="rgb(0%, 83.726501%, 92.359924%)" offset="0.507812"/><stop stop-opacity="1" stop-color="rgb(0%, 83.514404%, 92.210388%)" offset="0.515625"/><stop stop-opacity="1" stop-color="rgb(0%, 83.299255%, 92.199707%)" offset="0.519531"/><stop stop-opacity="1" stop-color="rgb(0%, 83.099365%, 92.199707%)" offset="0.523437"/><stop stop-opacity="1" stop-color="rgb(0%, 83.099365%, 92.199707%)" offset="0.53125"/><stop stop-opacity="1" stop-color="rgb(0%, 82.90863%, 92.008972%)" offset="0.539062"/><stop stop-opacity="1" stop-color="rgb(0%, 82.568359%, 91.809082%)" offset="0.546875"/><stop stop-opacity="1" stop-color="rgb(0%, 82.232666%, 91.622925%)" offset="0.5625"/><stop stop-opacity="1" stop-color="rgb(0%, 82.022095%, 91.421509%)" offset="0.570312"/><stop stop-opacity="1" stop-color="rgb(0%, 81.806946%, 91.398621%)" offset="0.578125"/><stop stop-opacity="1" stop-color="rgb(0%, 81.419373%, 91.398621%)" offset="0.585938"/><stop stop-opacity="1" stop-color="rgb(0%, 81.211853%, 91.215515%)" offset="0.59375"/><stop stop-opacity="1" stop-color="rgb(0%, 81.021118%, 91.015625%)" offset="0.601562"/><stop stop-opacity="1" stop-color="rgb(0%, 80.821228%, 90.99884%)" offset="0.609375"/><stop stop-opacity="1" stop-color="rgb(0%, 80.606079%, 90.805054%)" offset="0.617188"/><stop stop-opacity="1" stop-color="rgb(0%, 80.21698%, 90.605164%)" offset="0.625"/><stop stop-opacity="1" stop-color="rgb(0%, 79.830933%, 90.419006%)" offset="0.640625"/><stop stop-opacity="1" stop-color="rgb(0%, 79.418945%, 90.219116%)" offset="0.644531"/><stop stop-opacity="1" stop-color="rgb(0%, 79.199219%, 90.19928%)" offset="0.648438"/><stop stop-opacity="1" stop-color="rgb(0%, 79.199219%, 90.19928%)" offset="0.65625"/><stop stop-opacity="1" stop-color="rgb(0%, 79.008484%, 90.19928%)" offset="0.664062"/><stop stop-opacity="1" stop-color="rgb(0%, 78.808594%, 90.013123%)" offset="0.671875"/><stop stop-opacity="1" stop-color="rgb(0%, 78.617859%, 89.813232%)" offset="0.679688"/><stop stop-opacity="1" stop-color="rgb(0%, 78.240967%, 89.7995%)" offset="0.6875"/><stop stop-opacity="1" stop-color="rgb(0%, 78.022766%, 89.602661%)" offset="0.691406"/><stop stop-opacity="1" stop-color="rgb(0%, 77.999878%, 89.405823%)" offset="0.695312"/><stop stop-opacity="1" stop-color="rgb(0%, 77.806091%, 89.402771%)" offset="0.703125"/><stop stop-opacity="1" stop-color="rgb(0%, 77.468872%, 89.399719%)" offset="0.71875"/><stop stop-opacity="1" stop-color="rgb(0%, 77.133179%, 89.221191%)" offset="0.726562"/><stop stop-opacity="1" stop-color="rgb(0%, 76.921082%, 89.021301%)" offset="0.734375"/><stop stop-opacity="1" stop-color="rgb(0%, 76.704407%, 88.999939%)" offset="0.742188"/><stop stop-opacity="1" stop-color="rgb(0%, 76.504517%, 88.809204%)" offset="0.75"/><stop stop-opacity="1" stop-color="rgb(0%, 76.313782%, 88.609314%)" offset="0.757813"/><stop stop-opacity="1" stop-color="rgb(0%, 75.933838%, 88.598633%)" offset="0.765625"/><stop stop-opacity="1" stop-color="rgb(0%, 75.718689%, 88.598633%)" offset="0.773438"/><stop stop-opacity="1" stop-color="rgb(0%, 75.50354%, 88.40332%)" offset="0.78125"/><stop stop-opacity="1" stop-color="rgb(0%, 75.117493%, 88.20343%)" offset="0.796875"/><stop stop-opacity="1" stop-color="rgb(0%, 74.731445%, 88.017273%)" offset="0.804688"/><stop stop-opacity="1" stop-color="rgb(0%, 74.517822%, 87.817383%)" offset="0.8125"/><stop stop-opacity="1" stop-color="rgb(0%, 74.302673%, 87.799072%)" offset="0.816406"/><stop stop-opacity="1" stop-color="rgb(0%, 74.105835%, 87.799072%)" offset="0.820313"/><stop stop-opacity="1" stop-color="rgb(0%, 73.908997%, 87.799072%)" offset="0.824219"/><stop stop-opacity="1" stop-color="rgb(0%, 73.713684%, 87.799072%)" offset="0.828125"/><stop stop-opacity="1" stop-color="rgb(0%, 73.522949%, 87.649536%)" offset="0.84375"/><stop stop-opacity="1" stop-color="rgb(0%, 73.31543%, 87.5%)" offset="0.851563"/><stop stop-opacity="1" stop-color="rgb(0%, 73.100281%, 87.30011%)" offset="0.855469"/><stop stop-opacity="1" stop-color="rgb(0%, 72.901917%, 87.101746%)" offset="0.859375"/><stop stop-opacity="1" stop-color="rgb(0%, 72.706604%, 87.10022%)" offset="0.867188"/><stop stop-opacity="1" stop-color="rgb(0%, 72.505188%, 87.098694%)" offset="0.875"/><stop stop-opacity="1" stop-color="rgb(0%, 72.348022%, 86.91864%)" offset="0.890625"/><stop stop-opacity="1" stop-color="rgb(0%, 71.99707%, 86.71875%)" offset="0.894531"/><stop stop-opacity="1" stop-color="rgb(0%, 71.79718%, 86.698914%)" offset="0.898437"/><stop stop-opacity="1" stop-color="rgb(0%, 71.601868%, 86.698914%)" offset="0.90625"/><stop stop-opacity="1" stop-color="rgb(0%, 71.401978%, 86.506653%)" offset="0.914062"/><stop stop-opacity="1" stop-color="rgb(0%, 71.212769%, 86.306763%)" offset="0.921875"/><stop stop-opacity="1" stop-color="rgb(0%, 70.835876%, 86.299133%)" offset="0.9375"/><stop stop-opacity="1" stop-color="rgb(0%, 70.423889%, 86.100769%)" offset="0.941406"/><stop stop-opacity="1" stop-color="rgb(0%, 70.204163%, 85.903931%)" offset="0.945312"/><stop stop-opacity="1" stop-color="rgb(0%, 70.201111%, 85.900879%)" offset="0.953125"/><stop stop-opacity="1" stop-color="rgb(0%, 70.010376%, 85.899353%)" offset="0.960938"/><stop stop-opacity="1" stop-color="rgb(0%, 69.810486%, 85.714722%)" offset="0.96875"/><stop stop-opacity="1" stop-color="rgb(0%, 69.619751%, 85.514832%)" offset="0.976562"/><stop stop-opacity="1" stop-color="rgb(0%, 69.219971%, 85.499573%)" offset="0.980469"/><stop stop-opacity="1" stop-color="rgb(0%, 69.000244%, 85.499573%)" offset="0.984375"/><stop stop-opacity="1" stop-color="rgb(0%, 68.809509%, 85.308838%)" offset="1"/></linearGradient><clipPath id="116f7d581d"><path d="M 105.203125 61.308594 L 269.453125 61.308594 L 269.453125 218 L 105.203125 218 Z M 105.203125 61.308594 " clip-rule="nonzero"/></clipPath><clipPath id="8e78911331"><path d="M 154 221 L 222 221 L 222 227.808594 L 154 227.808594 Z M 154 221 " clip-rule="nonzero"/></clipPath></defs><path fill="#fbb03b" d="M 271.128906 165.71875 L 104.09375 165.71875 C 104.09375 119.605469 141.484375 82.222656 187.613281 82.222656 C 233.738281 82.222656 271.128906 119.605469 271.128906 165.71875 " fill-opacity="1" fill-rule="nonzero"/><g clip-path="url(#c45e748a64)"><path fill="#f15a24" d="M 187.613281 86.449219 C 215.21875 86.449219 239.578125 100.625 253.78125 122.082031 C 261.34375 133.503906 266.027344 146.992188 266.792969 161.496094 L 108.429688 161.496094 C 110.632812 119.738281 145.308594 86.449219 187.613281 86.449219 M 268.457031 131.574219 C 266.300781 126.472656 263.6875 121.625 260.640625 117.066406 C 257.449219 112.285156 253.777344 107.8125 249.65625 103.691406 C 241.597656 95.636719 232.214844 89.3125 221.765625 84.894531 C 210.945312 80.320312 199.457031 78 187.613281 78 C 175.769531 78 164.277344 80.320312 153.457031 84.894531 C 143.007812 89.3125 133.625 95.636719 125.570312 103.691406 C 117.511719 111.746094 111.1875 121.128906 106.765625 131.574219 C 102.191406 142.390625 99.871094 153.878906 99.871094 165.71875 C 99.871094 168.054688 101.761719 169.945312 104.09375 169.945312 L 271.128906 169.945312 C 273.464844 169.945312 275.351562 168.054688 275.351562 165.71875 C 275.351562 153.878906 273.03125 142.390625 268.457031 131.574219 " fill-opacity="1" fill-rule="nonzero"/></g><path fill="#f99f36" d="M 113.175781 161.496094 L 108.429688 161.496094 C 110.632812 119.738281 145.308594 86.449219 187.613281 86.449219 C 215.21875 86.449219 239.578125 100.625 253.78125 122.082031 C 239.242188 103.90625 216.875 92.242188 191.835938 92.242188 C 151.507812 92.242188 118.117188 122.496094 113.175781 161.496094 " fill-opacity="1" fill-rule="nonzero"/><g clip-path="url(#4d8dc78f64)"><g clip-path="url(#6fb47ee2e2)"><g clip-path="url(#485de90f40)"><path fill="url(#c82eb23987)" d="M 273.21875 175.734375 L 101.664062 175.734375 L 101.664062 236.246094 L 273.21875 236.246094 Z M 273.21875 175.734375 " fill-rule="nonzero"/></g></g></g><path fill="#f15a29" d="M 201.394531 161.222656 C 201.152344 173.71875 190.738281 183.425781 177.785156 183.210938 C 175.902344 183.226562 174.046875 183.019531 172.210938 182.589844 C 170.378906 182.15625 168.621094 181.515625 166.941406 180.664062 C 165.261719 179.8125 163.707031 178.773438 162.273438 177.546875 C 160.84375 176.320312 159.574219 174.941406 158.472656 173.414062 C 157.710938 172.339844 157.152344 171.167969 156.796875 169.898438 C 156.4375 168.628906 156.304688 167.339844 156.394531 166.023438 C 156.394531 164.667969 155.519531 163.296875 155.015625 161.941406 C 154.867188 161.53125 154.496094 161.128906 154.515625 160.746094 C 155.027344 151.816406 159.378906 145.023438 168.246094 141.324219 C 177.117188 137.625 185.371094 138.945312 192.871094 144.566406 C 194.195312 145.511719 195.386719 146.597656 196.449219 147.832031 C 197.515625 149.0625 198.417969 150.402344 199.160156 151.851562 C 199.898438 153.300781 200.460938 154.816406 200.839844 156.402344 C 201.214844 157.988281 201.402344 159.59375 201.394531 161.222656 Z M 201.394531 161.222656 " fill-opacity="1" fill-rule="nonzero"/><g clip-path="url(#116f7d581d)"><path fill="#000000" d="M 198.050781 217.082031 L 148.738281 217.082031 C 148.542969 212.691406 148.363281 208.5625 148.167969 204.199219 L 149.679688 205.132812 C 150.105469 201.910156 150.515625 198.820312 150.925781 195.71875 L 151.859375 195.71875 L 151.859375 206.628906 L 152.875 206.695312 L 152.875 203.566406 L 153.554688 203.453125 L 156.042969 209.992188 L 157.273438 209.777344 C 157.09375 206.535156 156.925781 203.304688 156.769531 200.210938 C 156.925781 200.253906 157.070312 200.324219 157.207031 200.417969 C 159.945312 202.332031 159.925781 205.21875 159.9375 208.125 C 160.023438 209.28125 160.167969 210.429688 160.375 211.570312 C 164.222656 194.167969 154.878906 146.304688 135.109375 128.507812 L 135.5625 133.394531 L 133.058594 132.636719 C 133.617188 138.242188 134.160156 143.65625 134.6875 148.882812 L 132.777344 148.089844 L 135.761719 154.214844 L 134.382812 154.355469 C 134.875 157.542969 135.378906 160.726562 135.769531 163.304688 C 129.292969 158.726562 126.984375 152.097656 127.085938 135.609375 C 125.445312 139.234375 124.234375 141.914062 122.921875 144.835938 L 121.503906 143.492188 L 120.574219 149.546875 L 119.382812 148.910156 L 115.234375 157.8125 C 112.589844 145.667969 116.53125 135.769531 127.003906 127.726562 L 105.574219 134.5625 C 109.375 127.929688 114.890625 124.734375 122.949219 123.015625 L 105.191406 121.363281 C 113.578125 116.1875 121.09375 117.261719 129.601562 121.027344 L 116.914062 104.371094 C 124.160156 106.335938 128.503906 110.574219 131.976562 117.449219 C 133.496094 108.527344 137.957031 102.785156 145.335938 99 L 137.714844 116.261719 C 142.078125 114.238281 146.4375 111.292969 151.214844 110.246094 C 155.996094 109.203125 161.242188 110.015625 166.335938 110.808594 L 157.46875 113.609375 L 158.304688 114.789062 L 144.332031 120.390625 C 154.484375 122.457031 163.046875 126.855469 167.808594 137.738281 L 159.488281 132.863281 L 159.488281 135.421875 L 154.605469 129.59375 C 154.363281 130.984375 154.253906 131.640625 154.308594 131.347656 L 137.324219 125.808594 L 136.617188 127.3125 C 147.3125 137.289062 154.484375 149.5625 159.386719 163.101562 C 164.128906 176.175781 168.292969 189.46875 169.578125 203.601562 L 170.117188 200.097656 L 171.253906 201.453125 C 184.1875 186.257812 197.554688 171.347656 209.992188 155.683594 C 221.714844 140.941406 227.359375 123.921875 225.21875 104.765625 C 225.011719 102.972656 224.601562 101.195312 224.285156 99.46875 L 219.765625 101.925781 C 219.832031 101.328125 219.765625 102.054688 219.671875 102.792969 C 219.609375 103.382812 219.5625 103.980469 219.476562 104.875 L 217.808594 103.007812 C 217.625 104.953125 217.476562 106.550781 217.296875 108.304688 L 215.433594 107.371094 C 214.457031 111.199219 213.507812 114.9375 212.519531 118.851562 L 210.386719 116.488281 L 210.386719 126.101562 L 207.589844 122.785156 L 207.589844 130.761719 L 205.652344 128.257812 L 205.652344 136.058594 C 200.0625 122.753906 202.660156 110.722656 210.871094 99.207031 L 200.386719 104.53125 C 200.492188 104.015625 200.707031 102.859375 201.058594 101.007812 L 193.261719 107.726562 L 194.902344 102.738281 L 188.480469 108.484375 L 188.753906 105.476562 L 182.808594 110.875 C 189.328125 97.648438 200.359375 91.445312 214.550781 90.164062 L 205.886719 87.363281 L 206.890625 86.027344 L 200.453125 85.539062 L 202.019531 83.671875 L 191.34375 81.375 C 202.113281 77.84375 211.464844 79.339844 220.550781 86.8125 C 217.457031 77.253906 218.5 69.128906 223.585938 61.46875 C 224.125 69.96875 224.648438 78.28125 225.179688 86.691406 C 230.332031 76.621094 237.292969 69.242188 248.65625 67.691406 L 233.621094 83.316406 C 237.792969 81.871094 241.941406 79.722656 246.289062 79.125 C 250.640625 78.527344 255.328125 79.433594 259.863281 79.683594 L 259.761719 80.898438 L 250.09375 83.085938 L 251.621094 84.820312 L 244.902344 85.222656 L 246.261719 86.464844 L 234.320312 90.921875 C 250.0625 90.230469 261.8125 96.695312 269.40625 110.734375 C 268.472656 109.976562 267.542969 109.230469 266.609375 108.4375 C 265.679688 107.640625 264.570312 106.566406 262.882812 105.046875 L 263.816406 108.867188 C 261.683594 106.941406 259.921875 105.34375 257.433594 103.113281 L 258.503906 107.398438 L 251.246094 101.375 C 251.488281 103.082031 251.648438 104.175781 251.863281 105.644531 L 245.789062 100.234375 L 244.566406 101.046875 C 245.667969 103.308594 246.910156 105.488281 248.292969 107.585938 C 253.882812 115.058594 255.804688 123.417969 254.425781 132.742188 C 253.820312 130.535156 253.214844 128.332031 252.5625 126.023438 L 250.835938 127.988281 L 249.328125 120.652344 L 248.714844 120.652344 C 248.480469 121.757812 248.246094 122.859375 247.78125 125.042969 L 244.988281 115.28125 L 243.53125 118.449219 L 237.671875 107.519531 L 236.742188 109.238281 C 236.125 107.371094 235.585938 105.699219 235 103.925781 L 233.433594 105.980469 C 232.941406 104.371094 232.550781 103.082031 231.988281 101.214844 L 230.230469 104.0625 L 228.867188 101.066406 C 228.261719 102.140625 227.9375 102.410156 228.019531 102.605469 C 232.894531 125.128906 226.445312 145.082031 213.824219 163.398438 C 206.371094 174.261719 198.171875 184.675781 190.363281 195.328125 C 189.71875 196.292969 189.234375 197.332031 188.910156 198.445312 C 192.777344 200.621094 189.21875 204.488281 191.296875 207.292969 L 192.433594 204.042969 Z M 198.050781 217.082031 " fill-opacity="1" fill-rule="nonzero"/></g><path fill="#000000" d="M 218.507812 213.140625 C 212.535156 217.242188 205.707031 218.746094 198.703125 219.621094 C 186.039062 221.144531 173.359375 220.378906 160.679688 219.808594 C 151.160156 219.378906 141.601562 218.378906 132.171875 221.03125 C 134.082031 219.863281 136.109375 218.964844 138.253906 218.332031 C 140.398438 217.695312 142.589844 217.351562 144.824219 217.296875 C 156.136719 216.996094 167.445312 216.949219 178.753906 216.988281 C 190.066406 217.027344 201.234375 217.828125 212.292969 215.054688 C 214.390625 214.53125 216.441406 213.785156 218.507812 213.140625 Z M 218.507812 213.140625 " fill-opacity="1" fill-rule="nonzero"/><g clip-path="url(#8e78911331)"><path fill="#000000" d="M 154.484375 227.597656 C 160.335938 224.796875 166.597656 223.984375 173.027344 223.976562 C 182.714844 223.976562 192.402344 224.285156 202.074219 223.902344 C 208.753906 223.640625 215.40625 222.425781 221.089844 221.753906 C 216.96875 224.121094 212.539062 225.410156 207.796875 225.621094 C 197.222656 226.160156 186.628906 226.394531 176.042969 226.414062 C 168.859375 226.421875 161.648438 225.9375 154.484375 227.597656 Z M 154.484375 227.597656 " fill-opacity="1" fill-rule="nonzero"/></g><g fill="#000000" fill-opacity="1"><g transform="translate(76.901859, 275.967208)"><g><path d="M 16.46875 -4.546875 L 6.625 -4.546875 L 4.75 0 L -0.265625 0 L 9.171875 -21.203125 L 14.015625 -21.203125 L 23.5 0 L 18.34375 0 Z M 14.921875 -8.265625 L 11.5625 -16.375 L 8.203125 -8.265625 Z M 14.921875 -8.265625 "/></g></g></g><g fill="#000000" fill-opacity="1"><g transform="translate(100.093483, 275.967208)"><g><path d="M 2.515625 -21.203125 L 7.421875 -21.203125 L 7.421875 0 L 2.515625 0 Z M 2.515625 -21.203125 "/></g></g></g><g fill="#000000" fill-opacity="1"><g transform="translate(110.024103, 275.967208)"><g/></g></g><g fill="#000000" fill-opacity="1"><g transform="translate(118.592291, 275.967208)"><g><path d="M 6.90625 -17.203125 L 0.125 -17.203125 L 0.125 -21.203125 L 18.59375 -21.203125 L 18.59375 -17.203125 L 11.8125 -17.203125 L 11.8125 0 L 6.90625 0 Z M 6.90625 -17.203125 "/></g></g></g><g fill="#000000" fill-opacity="1"><g transform="translate(137.303025, 275.967208)"><g><path d="M 6.6875 -14.140625 C 7.257812 -14.929688 8.023438 -15.523438 8.984375 -15.921875 C 9.941406 -16.328125 11.046875 -16.53125 12.296875 -16.53125 L 12.296875 -12.171875 C 11.765625 -12.210938 11.410156 -12.234375 11.234375 -12.234375 C 9.878906 -12.234375 8.816406 -11.851562 8.046875 -11.09375 C 7.285156 -10.34375 6.90625 -9.207031 6.90625 -7.6875 L 6.90625 0 L 2.1875 0 L 2.1875 -16.296875 L 6.6875 -16.296875 Z M 6.6875 -14.140625 "/></g></g></g><g fill="#000000" fill-opacity="1"><g transform="translate(150.352102, 275.967208)"><g><path d="M 2.1875 -16.296875 L 6.90625 -16.296875 L 6.90625 0 L 2.1875 0 Z M 4.546875 -18.5625 C 3.671875 -18.5625 2.960938 -18.8125 2.421875 -19.3125 C 1.878906 -19.820312 1.609375 -20.453125 1.609375 -21.203125 C 1.609375 -21.941406 1.878906 -22.5625 2.421875 -23.0625 C 2.960938 -23.570312 3.671875 -23.828125 4.546875 -23.828125 C 5.410156 -23.828125 6.113281 -23.582031 6.65625 -23.09375 C 7.207031 -22.613281 7.484375 -22.007812 7.484375 -21.28125 C 7.484375 -20.5 7.207031 -19.847656 6.65625 -19.328125 C 6.113281 -18.816406 5.410156 -18.5625 4.546875 -18.5625 Z M 4.546875 -18.5625 "/></g></g></g><g fill="#000000" fill-opacity="1"><g transform="translate(159.465261, 275.967208)"><g><path d="M 11.8125 -16.53125 C 13.320312 -16.53125 14.695312 -16.179688 15.9375 -15.484375 C 17.1875 -14.785156 18.160156 -13.804688 18.859375 -12.546875 C 19.566406 -11.285156 19.921875 -9.816406 19.921875 -8.140625 C 19.921875 -6.460938 19.566406 -4.992188 18.859375 -3.734375 C 18.160156 -2.472656 17.1875 -1.492188 15.9375 -0.796875 C 14.695312 -0.0976562 13.320312 0.25 11.8125 0.25 C 9.726562 0.25 8.09375 -0.40625 6.90625 -1.71875 L 6.90625 5.875 L 2.1875 5.875 L 2.1875 -16.296875 L 6.6875 -16.296875 L 6.6875 -14.40625 C 7.863281 -15.820312 9.570312 -16.53125 11.8125 -16.53125 Z M 10.984375 -3.640625 C 12.203125 -3.640625 13.195312 -4.046875 13.96875 -4.859375 C 14.75 -5.679688 15.140625 -6.773438 15.140625 -8.140625 C 15.140625 -9.515625 14.75 -10.609375 13.96875 -11.421875 C 13.195312 -12.242188 12.203125 -12.65625 10.984375 -12.65625 C 9.773438 -12.65625 8.78125 -12.242188 8 -11.421875 C 7.226562 -10.609375 6.84375 -9.515625 6.84375 -8.140625 C 6.84375 -6.773438 7.226562 -5.679688 8 -4.859375 C 8.78125 -4.046875 9.773438 -3.640625 10.984375 -3.640625 Z M 10.984375 -3.640625 "/></g></g></g><g fill="#000000" fill-opacity="1"><g transform="translate(180.355889, 275.967208)"><g/></g></g><g fill="#000000" fill-opacity="1"><g transform="translate(188.924076, 275.967208)"><g><path d="M 11.6875 -21.203125 C 13.5625 -21.203125 15.191406 -20.882812 16.578125 -20.25 C 17.960938 -19.625 19.023438 -18.738281 19.765625 -17.59375 C 20.515625 -16.445312 20.890625 -15.082031 20.890625 -13.5 C 20.890625 -11.945312 20.515625 -10.585938 19.765625 -9.421875 C 19.023438 -8.265625 17.960938 -7.378906 16.578125 -6.765625 C 15.191406 -6.148438 13.5625 -5.84375 11.6875 -5.84375 L 7.421875 -5.84375 L 7.421875 0 L 2.515625 0 L 2.515625 -21.203125 Z M 11.421875 -9.84375 C 12.890625 -9.84375 14.003906 -10.160156 14.765625 -10.796875 C 15.535156 -11.429688 15.921875 -12.332031 15.921875 -13.5 C 15.921875 -14.695312 15.535156 -15.613281 14.765625 -16.25 C 14.003906 -16.882812 12.890625 -17.203125 11.421875 -17.203125 L 7.421875 -17.203125 L 7.421875 -9.84375 Z M 11.421875 -9.84375 "/></g></g></g><g fill="#000000" fill-opacity="1"><g transform="translate(211.086313, 275.967208)"><g><path d="M 2.1875 -22.46875 L 6.90625 -22.46875 L 6.90625 0 L 2.1875 0 Z M 2.1875 -22.46875 "/></g></g></g><g fill="#000000" fill-opacity="1"><g transform="translate(220.199472, 275.967208)"><g><path d="M 8.75 -16.53125 C 11.269531 -16.53125 13.207031 -15.929688 14.5625 -14.734375 C 15.914062 -13.535156 16.59375 -11.722656 16.59375 -9.296875 L 16.59375 0 L 12.171875 0 L 12.171875 -2.03125 C 11.285156 -0.507812 9.628906 0.25 7.203125 0.25 C 5.953125 0.25 4.867188 0.0351562 3.953125 -0.390625 C 3.035156 -0.816406 2.332031 -1.398438 1.84375 -2.140625 C 1.363281 -2.890625 1.125 -3.738281 1.125 -4.6875 C 1.125 -6.207031 1.691406 -7.398438 2.828125 -8.265625 C 3.972656 -9.128906 5.734375 -9.5625 8.109375 -9.5625 L 11.875 -9.5625 C 11.875 -10.59375 11.5625 -11.382812 10.9375 -11.9375 C 10.3125 -12.5 9.367188 -12.78125 8.109375 -12.78125 C 7.242188 -12.78125 6.390625 -12.644531 5.546875 -12.375 C 4.710938 -12.101562 4.003906 -11.734375 3.421875 -11.265625 L 1.71875 -14.5625 C 2.613281 -15.1875 3.679688 -15.671875 4.921875 -16.015625 C 6.160156 -16.359375 7.4375 -16.53125 8.75 -16.53125 Z M 8.390625 -2.9375 C 9.191406 -2.9375 9.90625 -3.125 10.53125 -3.5 C 11.164062 -3.875 11.613281 -4.421875 11.875 -5.140625 L 11.875 -6.8125 L 8.625 -6.8125 C 6.6875 -6.8125 5.71875 -6.175781 5.71875 -4.90625 C 5.71875 -4.300781 5.953125 -3.820312 6.421875 -3.46875 C 6.898438 -3.113281 7.554688 -2.9375 8.390625 -2.9375 Z M 8.390625 -2.9375 "/></g></g></g><g fill="#000000" fill-opacity="1"><g transform="translate(238.879946, 275.967208)"><g><path d="M 12.078125 -16.53125 C 14.097656 -16.53125 15.726562 -15.925781 16.96875 -14.71875 C 18.207031 -13.507812 18.828125 -11.710938 18.828125 -9.328125 L 18.828125 0 L 14.109375 0 L 14.109375 -8.59375 C 14.109375 -9.882812 13.828125 -10.847656 13.265625 -11.484375 C 12.703125 -12.128906 11.882812 -12.453125 10.8125 -12.453125 C 9.625 -12.453125 8.675781 -12.082031 7.96875 -11.34375 C 7.257812 -10.601562 6.90625 -9.507812 6.90625 -8.0625 L 6.90625 0 L 2.1875 0 L 2.1875 -16.296875 L 6.6875 -16.296875 L 6.6875 -14.390625 C 7.3125 -15.066406 8.085938 -15.59375 9.015625 -15.96875 C 9.953125 -16.34375 10.972656 -16.53125 12.078125 -16.53125 Z M 12.078125 -16.53125 "/></g></g></g><g fill="#000000" fill-opacity="1"><g transform="translate(259.800842, 275.967208)"><g><path d="M 12.078125 -16.53125 C 14.097656 -16.53125 15.726562 -15.925781 16.96875 -14.71875 C 18.207031 -13.507812 18.828125 -11.710938 18.828125 -9.328125 L 18.828125 0 L 14.109375 0 L 14.109375 -8.59375 C 14.109375 -9.882812 13.828125 -10.847656 13.265625 -11.484375 C 12.703125 -12.128906 11.882812 -12.453125 10.8125 -12.453125 C 9.625 -12.453125 8.675781 -12.082031 7.96875 -11.34375 C 7.257812 -10.601562 6.90625 -9.507812 6.90625 -8.0625 L 6.90625 0 L 2.1875 0 L 2.1875 -16.296875 L 6.6875 -16.296875 L 6.6875 -14.390625 C 7.3125 -15.066406 8.085938 -15.59375 9.015625 -15.96875 C 9.953125 -16.34375 10.972656 -16.53125 12.078125 -16.53125 Z M 12.078125 -16.53125 "/></g></g></g><g fill="#000000" fill-opacity="1"><g transform="translate(280.721739, 275.967208)"><g><path d="M 18.140625 -8.078125 C 18.140625 -8.023438 18.109375 -7.601562 18.046875 -6.8125 L 5.71875 -6.8125 C 5.945312 -5.800781 6.472656 -5.003906 7.296875 -4.421875 C 8.128906 -3.835938 9.160156 -3.546875 10.390625 -3.546875 C 11.234375 -3.546875 11.984375 -3.671875 12.640625 -3.921875 C 13.296875 -4.171875 13.90625 -4.570312 14.46875 -5.125 L 16.984375 -2.390625 C 15.453125 -0.628906 13.210938 0.25 10.265625 0.25 C 8.429688 0.25 6.804688 -0.109375 5.390625 -0.828125 C 3.972656 -1.546875 2.878906 -2.539062 2.109375 -3.8125 C 1.347656 -5.082031 0.96875 -6.523438 0.96875 -8.140625 C 0.96875 -9.734375 1.34375 -11.171875 2.09375 -12.453125 C 2.851562 -13.742188 3.894531 -14.742188 5.21875 -15.453125 C 6.539062 -16.171875 8.019531 -16.53125 9.65625 -16.53125 C 11.25 -16.53125 12.691406 -16.1875 13.984375 -15.5 C 15.273438 -14.8125 16.289062 -13.828125 17.03125 -12.546875 C 17.769531 -11.265625 18.140625 -9.773438 18.140625 -8.078125 Z M 9.6875 -12.953125 C 8.613281 -12.953125 7.710938 -12.648438 6.984375 -12.046875 C 6.265625 -11.441406 5.820312 -10.613281 5.65625 -9.5625 L 13.6875 -9.5625 C 13.519531 -10.59375 13.070312 -11.414062 12.34375 -12.03125 C 11.625 -12.644531 10.738281 -12.953125 9.6875 -12.953125 Z M 9.6875 -12.953125 "/></g></g></g><g fill="#000000" fill-opacity="1"><g transform="translate(299.826065, 275.967208)"><g><path d="M 6.6875 -14.140625 C 7.257812 -14.929688 8.023438 -15.523438 8.984375 -15.921875 C 9.941406 -16.328125 11.046875 -16.53125 12.296875 -16.53125 L 12.296875 -12.171875 C 11.765625 -12.210938 11.410156 -12.234375 11.234375 -12.234375 C 9.878906 -12.234375 8.816406 -11.851562 8.046875 -11.09375 C 7.285156 -10.34375 6.90625 -9.207031 6.90625 -7.6875 L 6.90625 0 L 2.1875 0 L 2.1875 -16.296875 L 6.6875 -16.296875 Z M 6.6875 -14.140625 "/></g></g></g><g fill="#000000" fill-opacity="1"><g transform="translate(102.927359, 303.334127)"><g><path d="M 1.109375 0 L 1.109375 -10.515625 L 4.5625 -10.515625 C 5.382812 -10.515625 6.0625 -10.378906 6.59375 -10.109375 C 7.125 -9.835938 7.515625 -9.472656 7.765625 -9.015625 C 8.023438 -8.554688 8.15625 -8.035156 8.15625 -7.453125 C 8.15625 -6.878906 8.03125 -6.363281 7.78125 -5.90625 C 7.53125 -5.445312 7.140625 -5.078125 6.609375 -4.796875 C 6.078125 -4.523438 5.394531 -4.390625 4.5625 -4.390625 L 2.375 -4.390625 L 2.375 0 Z M 2.375 -5.453125 L 4.546875 -5.453125 C 5.378906 -5.453125 5.972656 -5.628906 6.328125 -5.984375 C 6.691406 -6.347656 6.875 -6.835938 6.875 -7.453125 C 6.875 -8.085938 6.691406 -8.582031 6.328125 -8.9375 C 5.972656 -9.289062 5.378906 -9.46875 4.546875 -9.46875 L 2.375 -9.46875 Z M 2.375 -5.453125 "/></g></g></g><g fill="#000000" fill-opacity="1"><g transform="translate(111.629809, 303.334127)"><g><path d="M 1.03125 0 L 1.03125 -10.828125 L 2.296875 -10.828125 L 2.296875 0 Z M 1.03125 0 "/></g></g></g><g fill="#000000" fill-opacity="1"><g transform="translate(114.966494, 303.334127)"><g><path d="M 3.515625 0.1875 C 2.890625 0.1875 2.375 0.0820312 1.96875 -0.125 C 1.5625 -0.34375 1.253906 -0.625 1.046875 -0.96875 C 0.847656 -1.320312 0.75 -1.707031 0.75 -2.125 C 0.75 -2.882812 1.039062 -3.46875 1.625 -3.875 C 2.207031 -4.289062 3 -4.5 4 -4.5 L 6.015625 -4.5 L 6.015625 -4.578125 C 6.015625 -5.234375 5.84375 -5.726562 5.5 -6.0625 C 5.15625 -6.394531 4.703125 -6.5625 4.140625 -6.5625 C 3.640625 -6.5625 3.210938 -6.4375 2.859375 -6.1875 C 2.503906 -5.945312 2.28125 -5.59375 2.1875 -5.125 L 0.90625 -5.125 C 0.957031 -5.664062 1.140625 -6.117188 1.453125 -6.484375 C 1.765625 -6.859375 2.15625 -7.144531 2.625 -7.34375 C 3.101562 -7.539062 3.609375 -7.640625 4.140625 -7.640625 C 5.179688 -7.640625 5.960938 -7.359375 6.484375 -6.796875 C 7.015625 -6.242188 7.28125 -5.503906 7.28125 -4.578125 L 7.28125 0 L 6.140625 0 L 6.078125 -1.34375 C 5.859375 -0.914062 5.546875 -0.550781 5.140625 -0.25 C 4.742188 0.0390625 4.203125 0.1875 3.515625 0.1875 Z M 3.71875 -0.890625 C 4.195312 -0.890625 4.609375 -1.015625 4.953125 -1.265625 C 5.296875 -1.515625 5.554688 -1.835938 5.734375 -2.234375 C 5.921875 -2.640625 6.015625 -3.0625 6.015625 -3.5 L 6.015625 -3.515625 L 4.109375 -3.515625 C 3.359375 -3.515625 2.832031 -3.382812 2.53125 -3.125 C 2.226562 -2.875 2.078125 -2.554688 2.078125 -2.171875 C 2.078125 -1.785156 2.21875 -1.472656 2.5 -1.234375 C 2.789062 -1.003906 3.195312 -0.890625 3.71875 -0.890625 Z M 3.71875 -0.890625 "/></g></g></g><g fill="#000000" fill-opacity="1"><g transform="translate(123.097799, 303.334127)"><g><path d="M 1.03125 0 L 1.03125 -7.453125 L 2.171875 -7.453125 L 2.25 -6.125 C 2.488281 -6.59375 2.832031 -6.960938 3.28125 -7.234375 C 3.738281 -7.503906 4.253906 -7.640625 4.828125 -7.640625 C 5.703125 -7.640625 6.398438 -7.367188 6.921875 -6.828125 C 7.453125 -6.296875 7.71875 -5.472656 7.71875 -4.359375 L 7.71875 0 L 6.46875 0 L 6.46875 -4.21875 C 6.46875 -5.769531 5.828125 -6.546875 4.546875 -6.546875 C 3.898438 -6.546875 3.363281 -6.3125 2.9375 -5.84375 C 2.507812 -5.382812 2.296875 -4.722656 2.296875 -3.859375 L 2.296875 0 Z M 1.03125 0 "/></g></g></g><g fill="#000000" fill-opacity="1"><g transform="translate(131.695039, 303.334127)"><g/></g></g><g fill="#000000" fill-opacity="1"><g transform="translate(135.678021, 303.334127)"><g><path d="M 4.46875 0.1875 C 3.695312 0.1875 3.023438 0.046875 2.453125 -0.234375 C 1.878906 -0.515625 1.4375 -0.90625 1.125 -1.40625 C 0.8125 -1.914062 0.65625 -2.5 0.65625 -3.15625 L 1.984375 -3.15625 C 1.984375 -2.75 2.078125 -2.367188 2.265625 -2.015625 C 2.460938 -1.671875 2.742188 -1.394531 3.109375 -1.1875 C 3.472656 -0.988281 3.925781 -0.890625 4.46875 -0.890625 C 5.175781 -0.890625 5.722656 -1.054688 6.109375 -1.390625 C 6.503906 -1.734375 6.703125 -2.160156 6.703125 -2.671875 C 6.703125 -3.097656 6.609375 -3.4375 6.421875 -3.6875 C 6.242188 -3.945312 6.003906 -4.15625 5.703125 -4.3125 C 5.398438 -4.46875 5.050781 -4.609375 4.65625 -4.734375 C 4.257812 -4.859375 3.84375 -4.992188 3.40625 -5.140625 C 2.59375 -5.421875 1.988281 -5.769531 1.59375 -6.1875 C 1.207031 -6.601562 1.015625 -7.144531 1.015625 -7.8125 C 1.003906 -8.375 1.132812 -8.875 1.40625 -9.3125 C 1.675781 -9.75 2.0625 -10.085938 2.5625 -10.328125 C 3.0625 -10.578125 3.648438 -10.703125 4.328125 -10.703125 C 5.003906 -10.703125 5.585938 -10.578125 6.078125 -10.328125 C 6.578125 -10.078125 6.960938 -9.726562 7.234375 -9.28125 C 7.515625 -8.84375 7.660156 -8.34375 7.671875 -7.78125 L 6.34375 -7.78125 C 6.34375 -8.070312 6.265625 -8.359375 6.109375 -8.640625 C 5.960938 -8.929688 5.734375 -9.164062 5.421875 -9.34375 C 5.117188 -9.53125 4.738281 -9.625 4.28125 -9.625 C 3.707031 -9.632812 3.238281 -9.488281 2.875 -9.1875 C 2.507812 -8.882812 2.328125 -8.46875 2.328125 -7.9375 C 2.328125 -7.488281 2.453125 -7.140625 2.703125 -6.890625 C 2.960938 -6.648438 3.320312 -6.453125 3.78125 -6.296875 C 4.25 -6.148438 4.78125 -5.972656 5.375 -5.765625 C 5.875 -5.585938 6.320312 -5.378906 6.71875 -5.140625 C 7.125 -4.898438 7.441406 -4.585938 7.671875 -4.203125 C 7.898438 -3.828125 8.015625 -3.34375 8.015625 -2.75 C 8.015625 -2.25 7.882812 -1.773438 7.625 -1.328125 C 7.363281 -0.878906 6.96875 -0.515625 6.4375 -0.234375 C 5.914062 0.046875 5.257812 0.1875 4.46875 0.1875 Z M 4.46875 0.1875 "/></g></g></g><g fill="#000000" fill-opacity="1"><g transform="translate(144.365435, 303.334127)"><g><path d="M 1.03125 0 L 1.03125 -7.453125 L 2.171875 -7.453125 L 2.265625 -6.375 C 2.503906 -6.769531 2.820312 -7.078125 3.21875 -7.296875 C 3.625 -7.523438 4.078125 -7.640625 4.578125 -7.640625 C 5.171875 -7.640625 5.679688 -7.519531 6.109375 -7.28125 C 6.535156 -7.039062 6.863281 -6.671875 7.09375 -6.171875 C 7.351562 -6.628906 7.710938 -6.988281 8.171875 -7.25 C 8.628906 -7.507812 9.125 -7.640625 9.65625 -7.640625 C 10.539062 -7.640625 11.25 -7.367188 11.78125 -6.828125 C 12.3125 -6.296875 12.578125 -5.472656 12.578125 -4.359375 L 12.578125 0 L 11.328125 0 L 11.328125 -4.21875 C 11.328125 -4.988281 11.171875 -5.566406 10.859375 -5.953125 C 10.554688 -6.347656 10.113281 -6.546875 9.53125 -6.546875 C 8.925781 -6.546875 8.425781 -6.3125 8.03125 -5.84375 C 7.632812 -5.382812 7.4375 -4.722656 7.4375 -3.859375 L 7.4375 0 L 6.171875 0 L 6.171875 -4.21875 C 6.171875 -4.988281 6.015625 -5.566406 5.703125 -5.953125 C 5.398438 -6.347656 4.957031 -6.546875 4.375 -6.546875 C 3.78125 -6.546875 3.285156 -6.3125 2.890625 -5.84375 C 2.492188 -5.382812 2.296875 -4.722656 2.296875 -3.859375 L 2.296875 0 Z M 1.03125 0 "/></g></g></g><g fill="#000000" fill-opacity="1"><g transform="translate(157.817397, 303.334127)"><g><path d="M 3.515625 0.1875 C 2.890625 0.1875 2.375 0.0820312 1.96875 -0.125 C 1.5625 -0.34375 1.253906 -0.625 1.046875 -0.96875 C 0.847656 -1.320312 0.75 -1.707031 0.75 -2.125 C 0.75 -2.882812 1.039062 -3.46875 1.625 -3.875 C 2.207031 -4.289062 3 -4.5 4 -4.5 L 6.015625 -4.5 L 6.015625 -4.578125 C 6.015625 -5.234375 5.84375 -5.726562 5.5 -6.0625 C 5.15625 -6.394531 4.703125 -6.5625 4.140625 -6.5625 C 3.640625 -6.5625 3.210938 -6.4375 2.859375 -6.1875 C 2.503906 -5.945312 2.28125 -5.59375 2.1875 -5.125 L 0.90625 -5.125 C 0.957031 -5.664062 1.140625 -6.117188 1.453125 -6.484375 C 1.765625 -6.859375 2.15625 -7.144531 2.625 -7.34375 C 3.101562 -7.539062 3.609375 -7.640625 4.140625 -7.640625 C 5.179688 -7.640625 5.960938 -7.359375 6.484375 -6.796875 C 7.015625 -6.242188 7.28125 -5.503906 7.28125 -4.578125 L 7.28125 0 L 6.140625 0 L 6.078125 -1.34375 C 5.859375 -0.914062 5.546875 -0.550781 5.140625 -0.25 C 4.742188 0.0390625 4.203125 0.1875 3.515625 0.1875 Z M 3.71875 -0.890625 C 4.195312 -0.890625 4.609375 -1.015625 4.953125 -1.265625 C 5.296875 -1.515625 5.554688 -1.835938 5.734375 -2.234375 C 5.921875 -2.640625 6.015625 -3.0625 6.015625 -3.5 L 6.015625 -3.515625 L 4.109375 -3.515625 C 3.359375 -3.515625 2.832031 -3.382812 2.53125 -3.125 C 2.226562 -2.875 2.078125 -2.554688 2.078125 -2.171875 C 2.078125 -1.785156 2.21875 -1.472656 2.5 -1.234375 C 2.789062 -1.003906 3.195312 -0.890625 3.71875 -0.890625 Z M 3.71875 -0.890625 "/></g></g></g><g fill="#000000" fill-opacity="1"><g transform="translate(165.948702, 303.334127)"><g><path d="M 1.03125 0 L 1.03125 -7.453125 L 2.171875 -7.453125 L 2.28125 -6.03125 C 2.507812 -6.519531 2.859375 -6.910156 3.328125 -7.203125 C 3.804688 -7.492188 4.390625 -7.640625 5.078125 -7.640625 L 5.078125 -6.3125 L 4.734375 -6.3125 C 4.296875 -6.3125 3.890625 -6.234375 3.515625 -6.078125 C 3.148438 -5.921875 2.851562 -5.65625 2.625 -5.28125 C 2.40625 -4.914062 2.296875 -4.410156 2.296875 -3.765625 L 2.296875 0 Z M 1.03125 0 "/></g></g></g><g fill="#000000" fill-opacity="1"><g transform="translate(171.404642, 303.334127)"><g><path d="M 3.984375 0 C 3.304688 0 2.769531 -0.160156 2.375 -0.484375 C 1.976562 -0.816406 1.78125 -1.414062 1.78125 -2.28125 L 1.78125 -6.390625 L 0.5 -6.390625 L 0.5 -7.453125 L 1.78125 -7.453125 L 1.953125 -9.25 L 3.046875 -9.25 L 3.046875 -7.453125 L 5.25 -7.453125 L 5.25 -6.390625 L 3.046875 -6.390625 L 3.046875 -2.28125 C 3.046875 -1.8125 3.140625 -1.492188 3.328125 -1.328125 C 3.523438 -1.160156 3.863281 -1.078125 4.34375 -1.078125 L 5.125 -1.078125 L 5.125 0 Z M 3.984375 0 "/></g></g></g><g fill="#000000" fill-opacity="1"><g transform="translate(177.221306, 303.334127)"><g><path d="M 4.390625 0.1875 C 3.679688 0.1875 3.050781 0.0234375 2.5 -0.296875 C 1.945312 -0.628906 1.507812 -1.085938 1.1875 -1.671875 C 0.875 -2.253906 0.71875 -2.941406 0.71875 -3.734375 C 0.71875 -4.515625 0.875 -5.195312 1.1875 -5.78125 C 1.5 -6.363281 1.929688 -6.816406 2.484375 -7.140625 C 3.046875 -7.472656 3.691406 -7.640625 4.421875 -7.640625 C 5.140625 -7.640625 5.757812 -7.472656 6.28125 -7.140625 C 6.8125 -6.816406 7.21875 -6.390625 7.5 -5.859375 C 7.78125 -5.328125 7.921875 -4.757812 7.921875 -4.15625 C 7.921875 -4.039062 7.914062 -3.925781 7.90625 -3.8125 C 7.90625 -3.707031 7.90625 -3.582031 7.90625 -3.4375 L 1.96875 -3.4375 C 2 -2.863281 2.128906 -2.390625 2.359375 -2.015625 C 2.597656 -1.640625 2.894531 -1.359375 3.25 -1.171875 C 3.601562 -0.984375 3.984375 -0.890625 4.390625 -0.890625 C 4.910156 -0.890625 5.34375 -1.007812 5.6875 -1.25 C 6.039062 -1.488281 6.300781 -1.8125 6.46875 -2.21875 L 7.71875 -2.21875 C 7.507812 -1.53125 7.125 -0.957031 6.5625 -0.5 C 6 -0.0390625 5.273438 0.1875 4.390625 0.1875 Z M 4.390625 -6.5625 C 3.785156 -6.5625 3.25 -6.378906 2.78125 -6.015625 C 2.320312 -5.648438 2.054688 -5.117188 1.984375 -4.421875 L 6.671875 -4.421875 C 6.640625 -5.085938 6.410156 -5.609375 5.984375 -5.984375 C 5.554688 -6.367188 5.023438 -6.5625 4.390625 -6.5625 Z M 4.390625 -6.5625 "/></g></g></g><g fill="#000000" fill-opacity="1"><g transform="translate(185.773452, 303.334127)"><g><path d="M 1.03125 0 L 1.03125 -7.453125 L 2.171875 -7.453125 L 2.28125 -6.03125 C 2.507812 -6.519531 2.859375 -6.910156 3.328125 -7.203125 C 3.804688 -7.492188 4.390625 -7.640625 5.078125 -7.640625 L 5.078125 -6.3125 L 4.734375 -6.3125 C 4.296875 -6.3125 3.890625 -6.234375 3.515625 -6.078125 C 3.148438 -5.921875 2.851562 -5.65625 2.625 -5.28125 C 2.40625 -4.914062 2.296875 -4.410156 2.296875 -3.765625 L 2.296875 0 Z M 1.03125 0 "/></g></g></g><g fill="#000000" fill-opacity="1"><g transform="translate(191.229392, 303.334127)"><g><path d="M 0.03125 1.78125 L 0.90625 -1.53125 L 2.203125 -1.53125 L 0.90625 1.78125 Z M 0.03125 1.78125 "/></g></g></g><g fill="#000000" fill-opacity="1"><g transform="translate(193.904757, 303.334127)"><g/></g></g><g fill="#000000" fill-opacity="1"><g transform="translate(197.887739, 303.334127)"><g><path d="M 3.578125 0 L 3.578125 -9.484375 L 0.4375 -9.484375 L 0.4375 -10.515625 L 7.984375 -10.515625 L 7.984375 -9.484375 L 4.84375 -9.484375 L 4.84375 0 Z M 3.578125 0 "/></g></g></g><g fill="#000000" fill-opacity="1"><g transform="translate(206.304617, 303.334127)"><g><path d="M 1.03125 0 L 1.03125 -7.453125 L 2.171875 -7.453125 L 2.28125 -6.03125 C 2.507812 -6.519531 2.859375 -6.910156 3.328125 -7.203125 C 3.804688 -7.492188 4.390625 -7.640625 5.078125 -7.640625 L 5.078125 -6.3125 L 4.734375 -6.3125 C 4.296875 -6.3125 3.890625 -6.234375 3.515625 -6.078125 C 3.148438 -5.921875 2.851562 -5.65625 2.625 -5.28125 C 2.40625 -4.914062 2.296875 -4.410156 2.296875 -3.765625 L 2.296875 0 Z M 1.03125 0 "/></g></g></g><g fill="#000000" fill-opacity="1"><g transform="translate(211.760556, 303.334127)"><g><path d="M 3.515625 0.1875 C 2.890625 0.1875 2.375 0.0820312 1.96875 -0.125 C 1.5625 -0.34375 1.253906 -0.625 1.046875 -0.96875 C 0.847656 -1.320312 0.75 -1.707031 0.75 -2.125 C 0.75 -2.882812 1.039062 -3.46875 1.625 -3.875 C 2.207031 -4.289062 3 -4.5 4 -4.5 L 6.015625 -4.5 L 6.015625 -4.578125 C 6.015625 -5.234375 5.84375 -5.726562 5.5 -6.0625 C 5.15625 -6.394531 4.703125 -6.5625 4.140625 -6.5625 C 3.640625 -6.5625 3.210938 -6.4375 2.859375 -6.1875 C 2.503906 -5.945312 2.28125 -5.59375 2.1875 -5.125 L 0.90625 -5.125 C 0.957031 -5.664062 1.140625 -6.117188 1.453125 -6.484375 C 1.765625 -6.859375 2.15625 -7.144531 2.625 -7.34375 C 3.101562 -7.539062 3.609375 -7.640625 4.140625 -7.640625 C 5.179688 -7.640625 5.960938 -7.359375 6.484375 -6.796875 C 7.015625 -6.242188 7.28125 -5.503906 7.28125 -4.578125 L 7.28125 0 L 6.140625 0 L 6.078125 -1.34375 C 5.859375 -0.914062 5.546875 -0.550781 5.140625 -0.25 C 4.742188 0.0390625 4.203125 0.1875 3.515625 0.1875 Z M 3.71875 -0.890625 C 4.195312 -0.890625 4.609375 -1.015625 4.953125 -1.265625 C 5.296875 -1.515625 5.554688 -1.835938 5.734375 -2.234375 C 5.921875 -2.640625 6.015625 -3.0625 6.015625 -3.5 L 6.015625 -3.515625 L 4.109375 -3.515625 C 3.359375 -3.515625 2.832031 -3.382812 2.53125 -3.125 C 2.226562 -2.875 2.078125 -2.554688 2.078125 -2.171875 C 2.078125 -1.785156 2.21875 -1.472656 2.5 -1.234375 C 2.789062 -1.003906 3.195312 -0.890625 3.71875 -0.890625 Z M 3.71875 -0.890625 "/></g></g></g><g fill="#000000" fill-opacity="1"><g transform="translate(219.891861, 303.334127)"><g><path d="M 3.1875 0 L 0.359375 -7.453125 L 1.6875 -7.453125 L 3.921875 -1.21875 L 6.171875 -7.453125 L 7.46875 -7.453125 L 4.640625 0 Z M 3.1875 0 "/></g></g></g><g fill="#000000" fill-opacity="1"><g transform="translate(227.722557, 303.334127)"><g><path d="M 4.390625 0.1875 C 3.679688 0.1875 3.050781 0.0234375 2.5 -0.296875 C 1.945312 -0.628906 1.507812 -1.085938 1.1875 -1.671875 C 0.875 -2.253906 0.71875 -2.941406 0.71875 -3.734375 C 0.71875 -4.515625 0.875 -5.195312 1.1875 -5.78125 C 1.5 -6.363281 1.929688 -6.816406 2.484375 -7.140625 C 3.046875 -7.472656 3.691406 -7.640625 4.421875 -7.640625 C 5.140625 -7.640625 5.757812 -7.472656 6.28125 -7.140625 C 6.8125 -6.816406 7.21875 -6.390625 7.5 -5.859375 C 7.78125 -5.328125 7.921875 -4.757812 7.921875 -4.15625 C 7.921875 -4.039062 7.914062 -3.925781 7.90625 -3.8125 C 7.90625 -3.707031 7.90625 -3.582031 7.90625 -3.4375 L 1.96875 -3.4375 C 2 -2.863281 2.128906 -2.390625 2.359375 -2.015625 C 2.597656 -1.640625 2.894531 -1.359375 3.25 -1.171875 C 3.601562 -0.984375 3.984375 -0.890625 4.390625 -0.890625 C 4.910156 -0.890625 5.34375 -1.007812 5.6875 -1.25 C 6.039062 -1.488281 6.300781 -1.8125 6.46875 -2.21875 L 7.71875 -2.21875 C 7.507812 -1.53125 7.125 -0.957031 6.5625 -0.5 C 6 -0.0390625 5.273438 0.1875 4.390625 0.1875 Z M 4.390625 -6.5625 C 3.785156 -6.5625 3.25 -6.378906 2.78125 -6.015625 C 2.320312 -5.648438 2.054688 -5.117188 1.984375 -4.421875 L 6.671875 -4.421875 C 6.640625 -5.085938 6.410156 -5.609375 5.984375 -5.984375 C 5.554688 -6.367188 5.023438 -6.5625 4.390625 -6.5625 Z M 4.390625 -6.5625 "/></g></g></g><g fill="#000000" fill-opacity="1"><g transform="translate(236.274703, 303.334127)"><g><path d="M 1.03125 0 L 1.03125 -10.828125 L 2.296875 -10.828125 L 2.296875 0 Z M 1.03125 0 "/></g></g></g><g fill="#000000" fill-opacity="1"><g transform="translate(239.611387, 303.334127)"><g/></g></g><g fill="#000000" fill-opacity="1"><g transform="translate(243.594369, 303.334127)"><g><path d="M 1.109375 0 L 1.109375 -10.515625 L 4.8125 -10.515625 C 5.550781 -10.515625 6.160156 -10.394531 6.640625 -10.15625 C 7.128906 -9.925781 7.492188 -9.609375 7.734375 -9.203125 C 7.984375 -8.796875 8.109375 -8.34375 8.109375 -7.84375 C 8.109375 -7.164062 7.921875 -6.628906 7.546875 -6.234375 C 7.179688 -5.847656 6.742188 -5.578125 6.234375 -5.421875 C 6.628906 -5.359375 6.984375 -5.203125 7.296875 -4.953125 C 7.617188 -4.710938 7.875 -4.410156 8.0625 -4.046875 C 8.25 -3.691406 8.34375 -3.300781 8.34375 -2.875 C 8.34375 -2.34375 8.210938 -1.859375 7.953125 -1.421875 C 7.691406 -0.984375 7.304688 -0.632812 6.796875 -0.375 C 6.285156 -0.125 5.664062 0 4.9375 0 Z M 2.375 -5.921875 L 4.71875 -5.921875 C 5.394531 -5.921875 5.910156 -6.078125 6.265625 -6.390625 C 6.628906 -6.710938 6.8125 -7.15625 6.8125 -7.71875 C 6.8125 -8.238281 6.628906 -8.660156 6.265625 -8.984375 C 5.910156 -9.304688 5.378906 -9.46875 4.671875 -9.46875 L 2.375 -9.46875 Z M 2.375 -1.046875 L 4.796875 -1.046875 C 5.515625 -1.046875 6.066406 -1.210938 6.453125 -1.546875 C 6.847656 -1.890625 7.046875 -2.363281 7.046875 -2.96875 C 7.046875 -3.550781 6.835938 -4.019531 6.421875 -4.375 C 6.015625 -4.738281 5.460938 -4.921875 4.765625 -4.921875 L 2.375 -4.921875 Z M 2.375 -1.046875 "/></g></g></g><g fill="#000000" fill-opacity="1"><g transform="translate(252.642508, 303.334127)"><g><path d="M 4.390625 0.1875 C 3.679688 0.1875 3.050781 0.0234375 2.5 -0.296875 C 1.945312 -0.628906 1.507812 -1.085938 1.1875 -1.671875 C 0.875 -2.253906 0.71875 -2.941406 0.71875 -3.734375 C 0.71875 -4.515625 0.875 -5.195312 1.1875 -5.78125 C 1.5 -6.363281 1.929688 -6.816406 2.484375 -7.140625 C 3.046875 -7.472656 3.691406 -7.640625 4.421875 -7.640625 C 5.140625 -7.640625 5.757812 -7.472656 6.28125 -7.140625 C 6.8125 -6.816406 7.21875 -6.390625 7.5 -5.859375 C 7.78125 -5.328125 7.921875 -4.757812 7.921875 -4.15625 C 7.921875 -4.039062 7.914062 -3.925781 7.90625 -3.8125 C 7.90625 -3.707031 7.90625 -3.582031 7.90625 -3.4375 L 1.96875 -3.4375 C 2 -2.863281 2.128906 -2.390625 2.359375 -2.015625 C 2.597656 -1.640625 2.894531 -1.359375 3.25 -1.171875 C 3.601562 -0.984375 3.984375 -0.890625 4.390625 -0.890625 C 4.910156 -0.890625 5.34375 -1.007812 5.6875 -1.25 C 6.039062 -1.488281 6.300781 -1.8125 6.46875 -2.21875 L 7.71875 -2.21875 C 7.507812 -1.53125 7.125 -0.957031 6.5625 -0.5 C 6 -0.0390625 5.273438 0.1875 4.390625 0.1875 Z M 4.390625 -6.5625 C 3.785156 -6.5625 3.25 -6.378906 2.78125 -6.015625 C 2.320312 -5.648438 2.054688 -5.117188 1.984375 -4.421875 L 6.671875 -4.421875 C 6.640625 -5.085938 6.410156 -5.609375 5.984375 -5.984375 C 5.554688 -6.367188 5.023438 -6.5625 4.390625 -6.5625 Z M 4.390625 -6.5625 "/></g></g></g><g fill="#000000" fill-opacity="1"><g transform="translate(261.194654, 303.334127)"><g><path d="M 3.984375 0 C 3.304688 0 2.769531 -0.160156 2.375 -0.484375 C 1.976562 -0.816406 1.78125 -1.414062 1.78125 -2.28125 L 1.78125 -6.390625 L 0.5 -6.390625 L 0.5 -7.453125 L 1.78125 -7.453125 L 1.953125 -9.25 L 3.046875 -9.25 L 3.046875 -7.453125 L 5.25 -7.453125 L 5.25 -6.390625 L 3.046875 -6.390625 L 3.046875 -2.28125 C 3.046875 -1.8125 3.140625 -1.492188 3.328125 -1.328125 C 3.523438 -1.160156 3.863281 -1.078125 4.34375 -1.078125 L 5.125 -1.078125 L 5.125 0 Z M 3.984375 0 "/></g></g></g><g fill="#000000" fill-opacity="1"><g transform="translate(267.011319, 303.334127)"><g><path d="M 3.984375 0 C 3.304688 0 2.769531 -0.160156 2.375 -0.484375 C 1.976562 -0.816406 1.78125 -1.414062 1.78125 -2.28125 L 1.78125 -6.390625 L 0.5 -6.390625 L 0.5 -7.453125 L 1.78125 -7.453125 L 1.953125 -9.25 L 3.046875 -9.25 L 3.046875 -7.453125 L 5.25 -7.453125 L 5.25 -6.390625 L 3.046875 -6.390625 L 3.046875 -2.28125 C 3.046875 -1.8125 3.140625 -1.492188 3.328125 -1.328125 C 3.523438 -1.160156 3.863281 -1.078125 4.34375 -1.078125 L 5.125 -1.078125 L 5.125 0 Z M 3.984375 0 "/></g></g></g><g fill="#000000" fill-opacity="1"><g transform="translate(272.827984, 303.334127)"><g><path d="M 4.390625 0.1875 C 3.679688 0.1875 3.050781 0.0234375 2.5 -0.296875 C 1.945312 -0.628906 1.507812 -1.085938 1.1875 -1.671875 C 0.875 -2.253906 0.71875 -2.941406 0.71875 -3.734375 C 0.71875 -4.515625 0.875 -5.195312 1.1875 -5.78125 C 1.5 -6.363281 1.929688 -6.816406 2.484375 -7.140625 C 3.046875 -7.472656 3.691406 -7.640625 4.421875 -7.640625 C 5.140625 -7.640625 5.757812 -7.472656 6.28125 -7.140625 C 6.8125 -6.816406 7.21875 -6.390625 7.5 -5.859375 C 7.78125 -5.328125 7.921875 -4.757812 7.921875 -4.15625 C 7.921875 -4.039062 7.914062 -3.925781 7.90625 -3.8125 C 7.90625 -3.707031 7.90625 -3.582031 7.90625 -3.4375 L 1.96875 -3.4375 C 2 -2.863281 2.128906 -2.390625 2.359375 -2.015625 C 2.597656 -1.640625 2.894531 -1.359375 3.25 -1.171875 C 3.601562 -0.984375 3.984375 -0.890625 4.390625 -0.890625 C 4.910156 -0.890625 5.34375 -1.007812 5.6875 -1.25 C 6.039062 -1.488281 6.300781 -1.8125 6.46875 -2.21875 L 7.71875 -2.21875 C 7.507812 -1.53125 7.125 -0.957031 6.5625 -0.5 C 6 -0.0390625 5.273438 0.1875 4.390625 0.1875 Z M 4.390625 -6.5625 C 3.785156 -6.5625 3.25 -6.378906 2.78125 -6.015625 C 2.320312 -5.648438 2.054688 -5.117188 1.984375 -4.421875 L 6.671875 -4.421875 C 6.640625 -5.085938 6.410156 -5.609375 5.984375 -5.984375 C 5.554688 -6.367188 5.023438 -6.5625 4.390625 -6.5625 Z M 4.390625 -6.5625 "/></g></g></g><g fill="#000000" fill-opacity="1"><g transform="translate(281.38013, 303.334127)"><g><path d="M 1.03125 0 L 1.03125 -7.453125 L 2.171875 -7.453125 L 2.28125 -6.03125 C 2.507812 -6.519531 2.859375 -6.910156 3.328125 -7.203125 C 3.804688 -7.492188 4.390625 -7.640625 5.078125 -7.640625 L 5.078125 -6.3125 L 4.734375 -6.3125 C 4.296875 -6.3125 3.890625 -6.234375 3.515625 -6.078125 C 3.148438 -5.921875 2.851562 -5.65625 2.625 -5.28125 C 2.40625 -4.914062 2.296875 -4.410156 2.296875 -3.765625 L 2.296875 0 Z M 1.03125 0 "/></g></g></g></svg>